<svg xmlns="http://www.w3.org/2000/svg" width="108.76" height="104.25" viewBox="0 0 108.76 104.25"><title>coulisses</title><line x1="2" y1="3.83" x2="100.42" y2="102.25" fill="#d41700" stroke="#fff" stroke-linecap="round" stroke-linejoin="round" stroke-width="4"/><path d="M40.29,43.24A21.5,21.5,0,0,0,71.36,72.86" transform="translate(-1.33 -1)" fill="none" stroke="#fff" stroke-linecap="round" stroke-linejoin="round" stroke-width="4"/><path d="M27.17,22h1a6.72,6.72,0,0,0,6-3.76L39.82,6.76a6.72,6.72,0,0,1,6-3.76H64.32a6.72,6.72,0,0,1,6,3.76L76.5,19.27a6.69,6.69,0,0,0,6,3.75l20.39.12a4.54,4.54,0,0,1,4.51,4.48l.7,60.75a6.73,6.73,0,0,1-6.72,6.8h-.87" transform="translate(-1.33 -1)" fill="none" stroke="#fff" stroke-linecap="round" stroke-linejoin="round" stroke-width="4"/><path d="M19.17,22.33H10.88A6.75,6.75,0,0,0,4.09,29L3.43,87a8.16,8.16,0,0,0,8.2,8.21H92.5" transform="translate(-1.33 -1)" fill="none" stroke="#fff" stroke-linecap="round" stroke-linejoin="round" stroke-width="4"/></svg>